<svg width="565" height="153" xmlns="http://www.w3.org/2000/svg" xmlns:xlink="http://www.w3.org/1999/xlink" version="1.1">
 <title>Full-width header above a main column and collapsible right sidebar.</title>
 <desc>Created with Sketch.</desc>
 <defs>
  <path d="m52.919,23.328c1.0531,1.6487 7.4332,2.9429 7.4332,2.9429s1.6838,1.2352 -4.5419,1.2352c-4.383,0 -17.873,0 -25.475,0c-7.6019,0 -21.092,0 -25.475,0c-6.2257,0 -4.5419,-1.2352 -4.5419,-1.2352s6.3801,-1.2942 7.4332,-2.9429c1.0531,-1.6487 2.8854,-23.259 2.8854,-23.259l39.397,0s1.8324,21.61 2.8854,23.259l-0.0004,0z" id="d"/>
  <rect rx="3.8554" height="123.57" width="200" y="0.48418" id="b"/>
  <path d="m52.919,23.328c1.0531,1.6487 7.4332,2.9429 7.4332,2.9429s1.6838,1.2352 -4.5419,1.2352c-4.383,0 -17.873,0 -25.475,0c-7.6019,0 -21.092,0 -25.475,0c-6.2257,0 -4.5419,-1.2352 -4.5419,-1.2352s6.3801,-1.2942 7.4332,-2.9429c1.0531,-1.6487 2.8854,-23.259 2.8854,-23.259l39.397,0s1.8324,21.61 2.8854,23.259l-0.0004,0z" id="c"/>
  <rect rx="3.8554" height="123.57" width="200" y="0.48418" id="a"/>
 </defs>
 <g>
  <title>Layer 1</title>
  <g stroke="null" id="svg_1" fill-rule="evenodd" fill="none">
   <g stroke="null" id="svg_2">
    <g stroke="null" id="svg_3">
     <g stroke="null" id="svg_4">
      <path stroke="null" id="svg_5" opacity="0.5" d="m370.28066,119.58672l0,0.47055c0.03448,0.22322 -0.26553,0.575 -2.52786,0.575c-2.33283,0 -9.51316,0 -13.55913,0c-4.04613,0 -11.22662,0 -13.55913,0c-2.2623,0 -2.56236,-0.35178 -2.52499,-0.575l-0.00287,-0.47055l0.40095,0.20516l31.37235,0l0.40095,-0.20516l-0.00026,0z"/>
      <path stroke="null" id="svg_6" fill="#C6C7CA" d="m370.28066,119.38143l0,0.47055c0.03448,0.22322 -0.26553,0.575 -2.52786,0.575c-2.33283,0 -9.51316,0 -13.55913,0c-4.04613,0 -11.22662,0 -13.55913,0c-2.2623,0 -2.56236,-0.35178 -2.52499,-0.575l-0.00287,-0.47055l0.40095,0.20516l31.37235,0l0.40095,-0.20516l-0.00026,0z"/>
      <mask stroke="null" fill="white">
       <use stroke="null" id="svg_7" xlink:href="#d"/>
      </mask>
      <use transform="matrix(0.532294 0 0 0.610982 236.659 -0.0123085)" stroke="null" id="svg_8" x="190.47444" y="168.84784" xlink:href="#d" fill="#D8D8D8"/>
     </g>
     <g stroke="null" id="svg_9">
      <mask stroke="null" fill="white" id="f">
       <use stroke="null" id="svg_10" xlink:href="#b"/>
      </mask>
      <use transform="matrix(0.532294 0 0 0.610982 236.659 -0.0123085)" stroke="null" id="svg_11" x="120.87445" y="45.31203" xlink:href="#b" fill-opacity="0.30016" fill="#9B9B9B"/>
      <use transform="matrix(0.532294 0 0 0.610982 236.659 -0.0123085)" stroke="null" id="svg_12" x="120.87445" y="45.31203" xlink:href="#b" fill="#E1E1E1"/>
      <g stroke="null" id="svg_13" mask="url(#f)" fill="#fff">
       <g stroke="null" id="svg_14">
        <rect stroke="null" id="svg_15" x="304.5913" y="33.29319" height="63.69488" width="99.29415"/>
       </g>
      </g>
     </g>
     <g stroke="null" id="svg_16">
      <rect stroke="null" id="svg_17" x="304.68105" fill="#54698D" height="12.30029" width="99.19302" y="33.28074"/>
      <rect stroke="null" id="svg_18" fill="#54698D" height="45.22734" width="69.38987" y="48.3365" x="307.24633"/>
      <rect stroke="null" id="svg_19" fill="#54698D" height="45.22734" width="21.59092" y="48.3365" x="379.50032"/>
      <rect stroke="null" id="svg_20" fill="#9FAAB5" height="45.22734" width="4.25835" y="48.35911" x="376.54076"/>
     </g>
     <g stroke="null" id="svg_21">
      <g stroke="null" id="svg_22">
       <path stroke="null" id="svg_23" opacity="0.5" d="m502.8219,119.58672l0,0.47055c0.03448,0.22322 -0.26553,0.575 -2.52786,0.575c-2.33283,0 -9.51316,0 -13.55913,0c-4.04613,0 -11.22662,0 -13.55913,0c-2.2623,0 -2.56236,-0.35178 -2.52499,-0.575l-0.00287,-0.47055l0.40095,0.20516l31.37235,0l0.40095,-0.20516l-0.00026,0z"/>
       <path stroke="null" id="svg_24" fill="#C6C7CA" d="m502.8219,119.38143l0,0.47055c0.03448,0.22322 -0.26553,0.575 -2.52786,0.575c-2.33283,0 -9.51316,0 -13.55913,0c-4.04613,0 -11.22662,0 -13.55913,0c-2.2623,0 -2.56236,-0.35178 -2.52499,-0.575l-0.00287,-0.47055l0.40095,0.20516l31.37235,0l0.40095,-0.20516l-0.00026,0z"/>
       <mask stroke="null" fill="white">
        <use stroke="null" id="svg_25" xlink:href="#c"/>
       </mask>
       <use transform="matrix(0.532294 0 0 0.610982 236.659 -0.0123085)" stroke="null" id="svg_26" x="439.47444" y="168.84784" xlink:href="#c" fill="#D8D8D8"/>
      </g>
      <g stroke="null" id="svg_27">
       <mask stroke="null" fill="white" id="e">
        <use stroke="null" id="svg_28" xlink:href="#a"/>
       </mask>
       <use transform="matrix(0.532294 0 0 0.610982 236.659 -0.0123085)" stroke="null" id="svg_29" x="369.87445" y="45.31203" xlink:href="#a" fill-opacity="0.30016" fill="#9B9B9B"/>
       <use transform="matrix(0.532294 0 0 0.610982 236.659 -0.0123085)" stroke="null" id="svg_30" x="369.87445" y="45.31203" xlink:href="#a" fill="#E1E1E1"/>
       <g stroke="null" id="svg_31" mask="url(#e)" fill="#fff">
        <g stroke="null" id="svg_32">
         <rect stroke="null" id="svg_33" x="437.13255" y="33.29319" height="63.69488" width="99.29415"/>
        </g>
       </g>
      </g>
      <g stroke="null" id="svg_34">
       <rect stroke="null" id="svg_35" x="437.22229" fill="#54698D" height="12.30029" width="99.19302" y="33.28074"/>
       <rect stroke="null" id="svg_36" fill="#54698D" height="45.22734" width="93.24729" y="48.3365" x="439.78758"/>
       <g stroke="null" id="svg_37">
        <rect stroke="null" id="svg_38" fill="#9FAAB5" height="45.22734" width="4.25835" y="48.35789" x="532.16463"/>
        <path stroke="null" id="svg_39" fill="#fff" d="m533.12852,71.31065l1.80022,-1.03317c0.13147,-0.07545 0.29134,-0.01428 0.35707,0.13662c0.01848,0.04242 0.0281,0.08919 0.0281,0.13662l0,2.06634c0,0.16872 -0.11916,0.30549 -0.26615,0.30549c-0.04132,0 -0.08207,-0.01104 -0.11903,-0.03225l-1.80022,-1.03317c-0.13147,-0.07545 -0.18476,-0.25895 -0.11903,-0.40986c0.02575,-0.05912 0.06752,-0.10706 0.11903,-0.13662z"/>
       </g>
      </g>
     </g>
    </g>
    <path stroke="null" id="svg_40" fill="#fff" d="m379.52395,71.85619l-1.80022,1.03317c-0.13147,0.07545 -0.29134,0.01428 -0.35707,-0.13662c-0.01848,-0.04242 -0.0281,-0.08919 -0.0281,-0.13662l0,-2.06634c0,-0.16872 0.11916,-0.30549 0.26615,-0.30549c0.04132,0 0.08207,0.01104 0.11903,0.03225l1.80022,1.03317c0.13147,0.07545 0.18476,0.25895 0.11903,0.40986c-0.02575,0.05912 -0.06752,0.10706 -0.11903,0.13662z"/>
   </g>
  </g>
  <g stroke="null" id="svg_128">
   <g stroke="null" id="svg_126">
    <g stroke="null" id="svg_91">
     <path stroke="null" id="svg_86" opacity="0.5" d="m198.93688,119.61837l0,0.47055c-0.03188,0.22322 0.24553,0.575 2.33748,0.575c2.15714,0 8.79668,0 12.53793,0c3.7414,0 10.3811,0 12.53793,0c2.09192,0 2.36938,-0.35178 2.33482,-0.575l0.00265,-0.47055l-0.37074,0.20516l-29.00958,0l-0.37074,-0.20516l0.00024,0z"/>
     <path stroke="null" id="svg_87" fill="#C6C7CA" d="m198.93688,119.41308l0,0.47055c-0.03188,0.22322 0.24553,0.575 2.33748,0.575c2.15714,0 8.79668,0 12.53793,0c3.7414,0 10.3811,0 12.53793,0c2.09192,0 2.36938,-0.35178 2.33482,-0.575l0.00265,-0.47055l-0.37074,0.20516l-29.00958,0l-0.37074,-0.20516l0.00024,0z"/>
     <mask stroke="null" id="svg_89" fill="white">
      <use stroke="null" id="svg_88" xlink:href="#d"/>
     </mask>
     <use stroke="null" transform="matrix(-0.492205 0 0 0.610982 -198.369 -0.0123085)" id="svg_90" x="-867.75177" y="168.89964" xlink:href="#d" fill="#D8D8D8"/>
    </g>
    <g stroke="null" id="svg_99">
     <mask stroke="null" fill="white" id="svg_93">
      <use stroke="null" id="svg_92" xlink:href="#b"/>
     </mask>
     <use stroke="null" transform="matrix(-0.492205 0 0 0.610982 -198.369 -0.0123085)" id="svg_94" x="-937.35177" y="45.36383" xlink:href="#b" fill-opacity="0.30016" fill="#9B9B9B"/>
     <use stroke="null" transform="matrix(-0.492205 0 0 0.610982 -198.369 -0.0123085)" id="svg_95" x="-937.35177" y="45.36383" xlink:href="#b" fill="#E1E1E1"/>
     <g stroke="null" id="svg_98" mask="url(#f)" fill="#fff">
      <g stroke="null" id="svg_97">
       <rect stroke="null" id="svg_96" x="167.863" y="33.32485" height="63.69488" width="91.81589"/>
      </g>
     </g>
    </g>
    <g stroke="null" id="svg_104">
     <rect stroke="null" id="svg_100" x="167.87354" fill="#54698D" height="12.30029" width="91.72237" y="33.31239"/>
     <rect stroke="null" id="svg_101" fill="#54698D" height="45.22734" width="64.16382" y="48.36815" x="193.06"/>
     <rect stroke="null" id="svg_102" fill="#54698D" height="45.22734" width="19.96481" y="48.36815" x="170.44678"/>
     <rect stroke="null" id="svg_103" fill="#9FAAB5" height="45.22734" width="3.93764" y="48.39076" x="189.21062"/>
    </g>
    <g stroke="null" id="svg_125">
     <g stroke="null" id="svg_110">
      <path stroke="null" id="svg_105" opacity="0.5" d="m76.37787,119.61837l0,0.47055c-0.03188,0.22322 0.24553,0.575 2.33749,0.575c2.15713,0 8.79668,0 12.53793,0c3.74139,0 10.38109,0 12.53793,0c2.09192,0 2.36937,-0.35178 2.33482,-0.575l0.00265,-0.47055l-0.37075,0.20516l-29.00957,0l-0.37075,-0.20516l0.00024,0z"/>
      <path stroke="null" id="svg_106" fill="#C6C7CA" d="m76.37787,119.41308l0,0.47055c-0.03188,0.22322 0.24553,0.575 2.33749,0.575c2.15713,0 8.79668,0 12.53793,0c3.74139,0 10.38109,0 12.53793,0c2.09192,0 2.36937,-0.35178 2.33482,-0.575l0.00265,-0.47055l-0.37075,0.20516l-29.00957,0l-0.37075,-0.20516l0.00024,0z"/>
      <mask stroke="null" id="svg_108" fill="white">
       <use stroke="null" id="svg_107" xlink:href="#c"/>
      </mask>
      <use stroke="null" transform="matrix(-0.492205 0 0 0.610982 -198.369 -0.0123085)" id="svg_109" x="-618.75177" y="168.89964" xlink:href="#c" fill="#D8D8D8"/>
     </g>
     <g stroke="null" id="svg_118">
      <mask stroke="null" fill="white" id="svg_112">
       <use stroke="null" id="svg_111" xlink:href="#a"/>
      </mask>
      <use stroke="null" transform="matrix(-0.492205 0 0 0.610982 -198.369 -0.0123085)" id="svg_113" x="-688.35177" y="45.36383" xlink:href="#a" fill-opacity="0.30016" fill="#9B9B9B"/>
      <use stroke="null" transform="matrix(-0.492205 0 0 0.610982 -198.369 -0.0123085)" id="svg_114" x="-688.35177" y="45.36383" xlink:href="#a" fill="#E1E1E1"/>
      <g stroke="null" id="svg_117" mask="url(#e)" fill="#fff">
       <g stroke="null" id="svg_116">
        <rect stroke="null" id="svg_115" x="45.304" y="33.32485" height="63.69488" width="91.81589"/>
       </g>
      </g>
     </g>
     <g stroke="null" id="svg_124">
      <rect stroke="null" id="svg_119" x="45.31453" fill="#54698D" height="12.30029" width="91.72237" y="33.31239"/>
      <rect stroke="null" id="svg_120" fill="#54698D" height="45.22734" width="86.22444" y="48.36815" x="48.44038"/>
      <g stroke="null" id="svg_123">
       <rect stroke="null" id="svg_121" fill="#9FAAB5" height="45.22734" width="3.93764" y="48.38954" x="45.30743"/>
       <path stroke="null" id="svg_122" fill="#fff" d="m48.35378,71.3423l-1.66464,-1.03317c-0.12157,-0.07545 -0.2694,-0.01428 -0.33018,0.13662c-0.01709,0.04242 -0.02598,0.08919 -0.02598,0.13663l0,2.06634c0,0.16871 0.11019,0.30549 0.24611,0.30549c0.03821,0 0.07589,-0.01104 0.11006,-0.03226l1.66464,-1.03317c0.12157,-0.07545 0.17084,-0.25895 0.11007,-0.40986c-0.02381,-0.05911 -0.06243,-0.10705 -0.11007,-0.13662z"/>
      </g>
     </g>
    </g>
   </g>
   <path stroke="null" id="svg_127" fill="#fff" d="m190.38974,71.88784l1.66464,1.03317c0.12157,0.07546 0.2694,0.01429 0.33018,-0.13662c0.01709,-0.04242 0.02598,-0.08919 0.02598,-0.13662l0,-2.06634c0,-0.16872 -0.11019,-0.30549 -0.24611,-0.30549c-0.03821,0 -0.07588,0.01104 -0.11006,0.03225l-1.66464,1.03317c-0.12157,0.07545 -0.17084,0.25896 -0.11007,0.40986c0.02382,0.05912 0.06243,0.10706 0.11007,0.13662z"/>
  </g>
 </g>
</svg>